<?xml version="1.0" encoding="utf-8"?>
<!-- Generator: Adobe Illustrator 16.0.0, SVG Export Plug-In . SVG Version: 6.00 Build 0)  -->
<!DOCTYPE svg PUBLIC "-//W3C//DTD SVG 1.1//EN" "http://www.w3.org/Graphics/SVG/1.1/DTD/svg11.dtd">
<svg version="1.1" id="Layer_1" xmlns="http://www.w3.org/2000/svg" xmlns:xlink="http://www.w3.org/1999/xlink" x="0px" y="0px"
	 width="192px" height="74px" viewBox="0 0 192 74" enable-background="new 0 0 192 74" xml:space="preserve">
<g>
	<path fill-rule="evenodd" clip-rule="evenodd" fill="#E6EBDF" d="M31.012,35.061c0.067-2.432,1.364-3.855,3.411-3.855
		c2.041,0,3.337,1.423,3.408,3.855H31.012L31.012,35.061z M41.681,37.881v-1.713c0-4.219-2.566-8.1-7.192-8.065
		c-4.792,0-7.659,3.54-7.659,9.106c0,5.578,2.867,9.134,7.455,9.134c3.409,0,5.777-1.083,7.396-3.587l-3.042-1.896
		c-1.05,1.218-1.97,2.098-3.948,2.098c-1.974,0-3.612-1.424-3.679-5.076H41.681L41.681,37.881z"/>
	<path fill-rule="evenodd" clip-rule="evenodd" fill="#E6EBDF" d="M66.452,48.885c0.644,0.136,1.153,0.136,1.76,0.136
		c1.456,0,2.27-0.406,2.778-1.387c0.404-0.845,0.676-1.354,0.676-2.066c0-0.643-0.337-1.388-0.538-2.1l-4.709-15.035h4.234
		l2.912,10.835h0.067l3.013-10.835h4.199l-5.556,17.644c-1.859,5.034-3.35,6.379-6.802,6.379c-1.018,0-1.524-0.07-2.034-0.137
		V48.885L66.452,48.885z"/>
	<path fill-rule="evenodd" clip-rule="evenodd" fill="#E6EBDF" d="M44.68,42.276c0,2.509,1.215,4.066,4.319,4.066
		c1.15,0,2.166-0.137,3.317-0.27v-3.456c-0.608,0.139-1.285,0.34-1.929,0.34c-1.05,0-1.524-0.273-1.524-1.219v-9.925h7.865v10.463
		c0,2.509,1.215,4.066,4.318,4.066c1.15,0,2.17-0.137,3.322-0.27v-3.456c-0.612,0.139-1.286,0.34-1.934,0.34
		c-1.051,0-1.52-0.272-1.52-1.219v-9.925h3.453v-3.381h-3.453v-5.823h-4.187v5.823h-7.865v-5.823H44.68V42.276L44.68,42.276z"/>
	<polygon fill-rule="evenodd" clip-rule="evenodd" fill="#E6EBDF" points="86.213,45.994 84.184,45.994 84.184,28.403 
		86.213,28.403 86.213,45.994 	"/>
	<polygon fill-rule="evenodd" clip-rule="evenodd" fill="#E6EBDF" points="84.184,25.657 84.184,22.675 86.213,22.675 
		86.213,25.657 84.184,25.657 	"/>
	<path fill-rule="evenodd" clip-rule="evenodd" fill="#E6EBDF" d="M90.636,45.994V28.403h2.027v2.643
		c1.802-1.894,3.124-2.995,5.869-2.995c1.962,0,3.759,1.239,4.268,3.199c1.593-1.86,3.284-3.199,5.833-3.199
		c3.081,0,4.64,1.674,4.64,4.76v13.183h-2.035v-13.39c0-1.963-1.083-2.947-3.045-2.947c-1.561,0-4.143,1.661-5.226,3.359v12.978
		h-2.03v-13.39c0-1.963-1.083-2.947-3.055-2.947c-1.558,0-4.134,1.661-5.219,3.359v12.978H90.636L90.636,45.994z"/>
	<path fill-rule="evenodd" clip-rule="evenodd" fill="#E6EBDF" d="M127.777,41.825c-1.767,1.797-4.112,2.911-6.012,2.911
		c-1.838,0-3.159-1.079-3.159-3.008c0-2.235,1.083-3.895,9.171-5.654V41.825L127.777,41.825z M130.079,45.994
		c-0.205-1.173-0.271-2.317-0.271-3.203v-9.219c0-3.915-1.896-5.521-5.904-5.521c-2.852,0-5.03,1.14-6.553,3.996l1.351,0.812
		c1.292-2.042,3.031-3.202,5.131-3.202c3.025,0,4.047,1.192,4.047,3.543v1.22c-7.372,1.627-11.308,2.51-11.308,7.318
		c0,2.933,2.102,4.609,4.853,4.609c2.717,0,4.313-0.807,6.418-2.458l0.274,2.104H130.079L130.079,45.994z"/>
	<path fill-rule="evenodd" clip-rule="evenodd" fill="#E6EBDF" d="M152.35,35.653c0.037-2.351,1.559-6.028,5.154-5.996
		c3.078,0.034,4.668,2.35,5.075,5.996H152.35L152.35,35.653z M164.613,37.257c0-5.455-2.27-9.206-7.048-9.206
		c-4.465,0-7.245,3.684-7.245,9.14c0,6.222,2.907,9.156,7.521,9.156c3.352,0,5.078-1.173,6.974-4.294l-1.655-0.887
		c-1.764,2.788-2.88,3.569-5.15,3.569c-3.997,0-5.659-3.462-5.659-7.479H164.613L164.613,37.257z"/>
	<path fill-rule="evenodd" clip-rule="evenodd" fill="#E6EBDF" d="M168.476,41.75c1.665,2.377,3.16,2.986,5.465,2.986
		c2.242,0,3.939-1.457,3.939-3.362c0-5.131-10.383-2.237-10.383-8.524c0-3.327,2.614-4.799,5.594-4.799
		c2.954,0,4.821,1.14,6.071,3.168l-1.554,1.088c-1.189-1.63-2.482-2.651-4.585-2.651c-1.968,0-3.498,0.951-3.498,3.093
		c0,4.313,10.387,1.765,10.387,8.624c0,3.162-2.919,4.974-6.109,4.974c-2.714,0-5.156-1.074-6.813-3.544L168.476,41.75
		L168.476,41.75z"/>
	<path fill-rule="evenodd" clip-rule="evenodd" fill="#E6EBDF" d="M20.127,34.19c0,1.631-1.288,2.915-2.88,2.915
		c-1.792,0-3.041-1.284-3.041-2.915c0-1.622,1.249-2.915,3.041-2.915C18.84,31.275,20.127,32.568,20.127,34.19L20.127,34.19z
		 M9.747,47.072c-0.087,0.279-0.186,0.738-0.158,1.279c0.131,2.771,3.089,4.08,7.818,4.08c5.607,0,8.144-2.704,8.144-5.21
		c0-7.036-11.565-3.173-11.565-6.016c0-1.021,1.455-1.088,3.278-1.088c4.411,0,6.636-2.361,6.636-5.688
		c0-1.356-0.404-2.374-0.942-3.12c0.64-0.408,1.727-0.408,2.706-0.408v-2.818c-1.998-0.07-3.317,0.469-4.127,1.548
		c-1.081-0.943-2.841-1.548-4.329-1.548c-4.571,0-6.937,3.036-6.937,6.12c0,2.134,1.148,3.484,2.605,4.667
		c-0.784,0.231-2.744,1.519-2.744,3.209c0,2.29,3.087,3.175,6.949,3.413c3.137,0.197,4.668,0.989,4.668,2.204
		c0,0.791-0.971,1.889-3.668,1.964c-4.375,0.121-4.85-1.175-4.57-2.516L9.747,47.072L9.747,47.072z"/>
	<path fill-rule="evenodd" clip-rule="evenodd" fill="#E6EBDF" d="M140.643,44.699c5.268,0,6.414,1.421,6.414,2.869
		c0,1.827-1.893,3.004-6.279,3.004c-3.648,0-5.336-1.177-5.336-2.904C135.441,46.153,136.658,44.699,140.643,44.699L140.643,44.699z
		 M148.982,27.755c-1.385,0-2.669,0.539-3.68,1.554c-1.117-0.747-2.397-1.217-4.085-1.217c-4.254,0-6.956,2.464-6.956,6.312
		c0,1.823,0.948,3.511,2.534,4.592c-1.283,0.271-2.632,1.483-2.632,2.973c0,1.483,1.046,2.024,2.328,2.291v0.066
		c-2.467,0.916-3.075,2.2-3.075,3.712c0,2.099,1.622,4.156,7.667,4.156c6.038,0,8.002-2.193,8.002-4.759
		c0-2.872-2.199-4.56-7.465-4.56c-4.757,0-5.433-0.505-5.433-1.517c0-0.644,0.504-1.283,1.615-1.692
		c0.881,0.304,1.726,0.544,2.839,0.544c3.713,0,6.783-1.82,6.783-6.145c0-1.688-0.469-2.733-1.244-3.678
		c0.705-0.709,1.887-0.812,2.801-0.812V27.755L148.982,27.755z M136.289,34.204c0-2.736,1.72-4.494,4.559-4.494
		c2.833,0,4.554,1.421,4.554,4.494c0,3.037-1.721,4.388-4.554,4.388C138.381,38.592,136.289,37.24,136.289,34.204L136.289,34.204z"
		/>
	<path fill-rule="evenodd" clip-rule="evenodd" fill="#E6EBDF" d="M185.332,25.642c0.001,1.628-1.324,2.962-2.959,2.962
		c-1.644,0-2.965-1.334-2.965-2.962c0-1.632,1.321-2.968,2.965-2.968C184.008,22.674,185.332,24.01,185.332,25.642L185.332,25.642z
		 M184.854,25.642c0.001-1.433-1.061-2.568-2.481-2.568c-1.425,0-2.491,1.135-2.491,2.568c0,1.427,1.066,2.562,2.491,2.562
		C183.794,28.203,184.855,27.069,184.854,25.642L184.854,25.642z M181.747,27.405h-0.479v-3.524h1.35
		c0.788,0,1.142,0.344,1.142,0.975c0,0.623-0.408,0.894-0.812,0.982l0.98,1.567h-0.543l-0.959-1.567h-0.678L181.747,27.405
		L181.747,27.405z M182.299,25.439c0.466,0,0.982,0.023,0.982-0.592c-0.001-0.497-0.4-0.568-0.77-0.568h-0.765v1.16H182.299
		L182.299,25.439z"/>
</g>
</svg>
