<?xml version="1.0" encoding="utf-8"?>
<!-- Generator: Adobe Illustrator 16.0.0, SVG Export Plug-In . SVG Version: 6.00 Build 0)  -->
<!DOCTYPE svg PUBLIC "-//W3C//DTD SVG 1.1//EN" "http://www.w3.org/Graphics/SVG/1.1/DTD/svg11.dtd">
<svg version="1.1" id="Layer_1" xmlns="http://www.w3.org/2000/svg" xmlns:xlink="http://www.w3.org/1999/xlink" x="0px" y="0px"
	 width="192px" height="74px" viewBox="0 0 192 74" enable-background="new 0 0 192 74" xml:space="preserve">
<g>
	<path fill-rule="evenodd" clip-rule="evenodd" fill="#E4E8DD" d="M31.116,23.191l29.801,0.095v8.816
		c0.097,0.575-0.653,0.475-0.766-0.095c-0.289-1.438-2.777-4.887-3.258-5.177H44.436v10.732h10.443
		c0.769-0.287,1.989-2.389,2.782-4.503c0.286-0.766,0.872-0.288,0.86-0.094c-0.19,3.448-0.144,9.767-0.096,12.36
		c0.02,0.963-0.479,1.246-0.765,0.383c-0.286-0.861-1.726-3.831-2.685-4.6H44.436v12.267h13.511
		c0.766-0.573,2.745-4.905,2.971-6.038c0.097-0.479,0.863-0.479,0.863-0.096v10.157l-21.178-0.286c-4.31,0-5.366,0-9.486,0.384
		c-0.675,0.062-0.659-0.931-0.193-1.149c4.696-2.206,5.273-0.96,5.273-7.666V30.376c0-4.982-1.431-4.786-5.273-6.228
		C30.521,23.998,30.734,23.286,31.116,23.191L31.116,23.191z"/>
	<path fill-rule="evenodd" clip-rule="evenodd" fill="#E4E8DD" d="M68.2,22.998l13.896,0.288l10.636,21.848l11.021-21.561
		c0,0,8.623,0,9.392,0c0.765,0,3.738-0.287,4.215-0.382c0.479-0.097,0.577,0.863,0.191,1.054c-0.383,0.191-4.982,2.108-5.459,2.779
		l2.775,26.64c0.383,0.861,5.066,2.841,5.846,2.971c0.574,0.096,0.399,0.785,0.096,0.765c-2.97-0.19-16.371-0.19-19.26,0
		c-0.289,0.02-1.5-0.45-0.191-0.862c1.531-0.479,4.6-1.533,5.27-2.683l-1.916-23.19L91.486,57.399h-2.203l-12.076-26.16
		l-2.106,22.425c0.861,1.724,4.888,2.492,5.366,2.684c0.478,0.189,0.478,0.899,0.096,0.861c-2.876-0.287-13.61-0.096-14.757,0.097
		c-0.575,0.094-1.617-0.634-0.287-1.056c3.752-1.188,4.983-0.094,5.845-8.815l2.3-19.166c0.286-3.161-3.731-3.545-5.558-4.215
		C67.835,23.953,67.53,22.998,68.2,22.998L68.2,22.998z"/>
	<path fill-rule="evenodd" clip-rule="evenodd" fill="#E4E8DD" d="M148.34,31.814l0.287-8.816
		c-3.931-0.478-13.629-2.073-21.656,3.833c-8.33,6.126-10.604,21.792,0.193,28.844c7.185,4.696,20.312,1.438,21.271,0.96
		c0.384-0.191,0.864-0.479,0.864-0.863c0-0.384,0.095-8.242,0.095-8.625c0-0.381-0.575-0.287-0.863,0.096
		c-0.284,0.384-1.758,6-3.163,6.709c-3.09,1.561-10.438,2.549-14.275-5.27c-2.529-5.15-2.604-12.126,1.052-18.496
		c3.8-6.621,10.925-4.723,11.789-4.215c1.627,0.957,2.626,3.08,3.353,5.749C147.572,32.772,148.246,32.581,148.34,31.814
		L148.34,31.814z"/>
	<path fill-rule="evenodd" clip-rule="evenodd" fill="#E4E8DD" d="M151.023,18.495c4.023-3.737,7.57-2.396,8.812-1.15
		c1.248,1.245,2.066,3.973-0.858,6.9c-1.44,1.437-4.409,3.737-4.409,3.737s4.695,0,4.598,0c0.481-0.096,1.322-1.74,1.631-2.205
		c0.193-0.286,0.383-0.19,0.383,0.194c0,0.382,0,4.886,0,4.886c-1.344-0.097-9.293-0.097-10.539-0.097v-1.628
		c2.107-1.63,4.119-3.929,5.652-5.846c1.532-1.917,1.284-7.027-4.12-4.024C151.311,19.742,150.733,19.262,151.023,18.495
		L151.023,18.495z"/>
</g>
</svg>
