<?xml version="1.0" encoding="utf-8"?>
<!-- Generator: Adobe Illustrator 16.0.0, SVG Export Plug-In . SVG Version: 6.00 Build 0)  -->
<!DOCTYPE svg PUBLIC "-//W3C//DTD SVG 1.1//EN" "http://www.w3.org/Graphics/SVG/1.1/DTD/svg11.dtd">
<svg version="1.1" id="Layer_1" xmlns="http://www.w3.org/2000/svg" xmlns:xlink="http://www.w3.org/1999/xlink" x="0px" y="0px"
	 width="192px" height="74px" viewBox="0 0 192 74" enable-background="new 0 0 192 74" xml:space="preserve">
<g>
	<path fill="#E6EBDF" d="M181.763,44.306h-0.896v2.584h-0.427v-2.584h-0.896v-0.311h2.219V44.306L181.763,44.306L181.763,44.306z
		 M183.772,46.133h0.015l0.806-2.138h0.664v2.895h-0.427v-2.415h-0.013l-0.901,2.415h-0.294l-0.895-2.415h-0.017v2.415h-0.427
		v-2.895h0.67L183.772,46.133L183.772,46.133z"/>
	<path fill="#E6EBDF" d="M94.958,41.405c-0.165,0.376-1.04,2.064-3.235,2.064c-2.541,0-3.529-2.104-3.529-3.674
		c0-2.587,1.742-4.914,4.31-4.914c2.759,0,3.419,2.056,3.479,2.43h4.069c0.24-1.516-0.964-6.16-7.393-6.16
		c-4.71,0-8.466,3.752-8.466,8.773c0,4.108,2.568,7.272,7.328,7.272c5.923,0,7.524-4.647,7.729-5.793H94.958L94.958,41.405z"/>
	<path fill="#E6EBDF" d="M63.78,42.54c0-0.237,0.063-0.686,0.27-1.63c0.209-0.941,3.076-14.165,3.076-14.165h-3.812L60.15,41.328
		c-0.134,0.606-0.191,1.22-0.191,1.753c0,3.193,2.472,4.135,4.46,4.135c0.707,0,1.364-0.113,1.523-0.14
		c0.07-0.315,0.667-3.064,0.691-3.186c-0.086,0.012-0.5,0.04-0.99,0.04C64.226,43.931,63.78,43.329,63.78,42.54L63.78,42.54z"/>
	<polygon fill="#E6EBDF" points="117.93,31.199 112.611,31.199 105.781,37.354 108.081,26.714 104.248,26.714 99.882,46.892 
		103.724,46.892 104.783,41.987 107.146,40.114 110.407,46.892 114.679,46.892 110.051,37.813 117.93,31.199 	"/>
	<path fill="#E6EBDF" d="M42.823,40.659c0.322-1.445,3.023-13.94,3.023-13.94s4.661,0,7.27,0c5.271,0,6.565,2.928,6.565,4.707
		c0,3.932-3.715,4.976-4.17,5.116c0.421,0.138,2.836,1.096,2.836,4.185c0,3.356-3.098,6.17-7.903,6.17c0,0-1.722,0-2.19,0
		C44.221,46.896,42.052,44.134,42.823,40.659L42.823,40.659L42.823,40.659z M54.2,40.409c0-0.949-0.612-2.15-3.327-2.15h-3.521
		l-1.055,4.883h3.992C52.868,43.142,54.2,41.978,54.2,40.409L54.2,40.409L54.2,40.409z M55.503,32.28
		c0-0.985-0.743-1.827-2.578-1.827h-3.884l-0.883,4.074h4.052C54.39,34.527,55.503,33.477,55.503,32.28L55.503,32.28z"/>
	<path fill="#E6EBDF" d="M116.181,40.659c0.323-1.445,3.024-13.94,3.024-13.94s4.66,0,7.267,0c5.272,0,6.57,2.928,6.57,4.707
		c0,3.932-3.714,4.976-4.173,5.116c0.42,0.138,2.838,1.096,2.838,4.185c0,3.356-3.097,6.17-7.901,6.17c0,0-1.723,0-2.193,0
		C117.584,46.896,115.417,44.134,116.181,40.659L116.181,40.659L116.181,40.659z M127.558,40.409c0-0.949-0.613-2.15-3.325-2.15
		h-3.52l-1.054,4.883h3.986C126.229,43.142,127.558,41.978,127.558,40.409L127.558,40.409L127.558,40.409z M128.863,32.28
		c0-0.985-0.746-1.827-2.575-1.827h-3.889l-0.877,4.074h4.045C127.75,34.527,128.863,33.477,128.863,32.28L128.863,32.28z"/>
	<path fill="#E6EBDF" d="M159.4,31.208c-4.064,0-6.828,2.408-7.765,6.928c-0.395,1.943-1.876,8.773-1.876,8.773h3.814
		c0,0,1.4-6.494,1.844-8.539c0.583-2.668,1.996-3.581,3.899-3.581c0.613,0,1.003,0.072,1.208,0.105
		c0.107-0.545,0.636-2.956,0.761-3.547C160.876,31.295,160.227,31.208,159.4,31.208L159.4,31.208z"/>
	<path fill="#E6EBDF" d="M172.373,52.914l12.789-21.706h-4.115l-5.877,10.215l-1.377-10.226c0,0-2.091,0-4.402,0
		c-5.039,0-7.655,2.31-8.582,6.722c-0.466,2.198-1.943,8.99-1.943,8.99h3.813c0,0,1.398-6.447,1.959-9.044
		c0.533-2.526,2.406-3.305,4.426-2.873l0.805-3.706c0.593,3.52,2.41,14.764,2.41,14.764l-3.988,6.864H172.373L172.373,52.914z"/>
	<path fill="#E6EBDF" d="M74.786,40.207c0.841-0.119,3.3-0.496,3.63-0.543c-0.062,0.262-0.157,0.676-0.232,0.985
		c-0.443,1.898-2.376,3.119-4.509,3.119c-1.358,0-2.157-0.732-2.157-1.606C71.519,41.449,72.18,40.6,74.786,40.207L74.786,40.207
		L74.786,40.207z M73.362,36.122c0.093-0.152,1.073-1.667,3.517-1.667c1.519,0,2.296,0.559,2.296,1.225
		c0,0.949-1.53,1.199-4.177,1.579c-4.559,0.651-7.438,2.068-7.438,5.355c0,2.332,1.934,4.603,5.374,4.603
		c2.861,0,4.354-1.722,4.484-1.854c0.012,0.416,0.066,1.035,0.107,1.53c0.32,0,2.96,0,3.946,0c-0.144-0.679-0.42-1.981,0.046-4.067
		c0.249-1.105,0.946-4.271,1.302-6.017c0.669-3.301-1.143-5.639-5.794-5.639c-5.969,0-7.687,4.296-7.969,4.953H73.362L73.362,36.122
		z"/>
	<path fill="#E6EBDF" d="M144.151,42.197c-0.136,0.308-1.06,1.601-3.136,1.601c-2.984,0-3.665-2.527-3.591-3.226
		c1.588,0,10.79,0,11.623,0c0.063-0.285,0.325-1.318,0.325-2.384c0-3.671-2.49-7.036-7.521-7.036c-4.599,0-8.284,3.862-8.284,8.458
		c0,4.439,2.667,7.588,7.385,7.588c5.83,0,7.399-4.57,7.546-5.001C147.468,42.197,144.151,42.197,144.151,42.197L144.151,42.197
		L144.151,42.197z M141.895,34.636c2.569,0,3.548,1.565,3.445,2.823c-1.477,0-5.861,0-7.346,0
		C138.188,36.659,139.412,34.636,141.895,34.636L141.895,34.636z"/>
	<path fill="#E6EBDF" d="M18.709,24.417c0-0.97-0.595-2.196-3.084-2.196c-1.026,0-3.839,0-3.839,0l-1.084,5.042c0,0,2.07,0,3.992,0
		C17.818,27.264,18.709,25.788,18.709,24.417L18.709,24.417z"/>
	<path fill="#E6EBDF" d="M29.038,24.417c0-0.97-0.593-2.196-3.083-2.196c-1.021,0-3.833,0-3.833,0l-1.089,5.042c0,0,2.07,0,3.993,0
		C28.15,27.264,29.038,25.788,29.038,24.417L29.038,24.417z"/>
	<path fill="#E6EBDF" d="M17.325,32.005c0-0.971-0.595-2.191-3.086-2.191c-1.021,0-3.835,0-3.835,0l-1.09,5.035c0,0,2.074,0,4.001,0
		C16.433,34.849,17.325,33.373,17.325,32.005L17.325,32.005z"/>
	<path fill="#E6EBDF" d="M27.653,32.005c0-0.971-0.593-2.191-3.08-2.191c-1.027,0-3.839,0-3.839,0l-1.088,5.035c0,0,2.071,0,3.993,0
		C26.764,34.849,27.653,33.373,27.653,32.005L27.653,32.005z"/>
	<path fill="#E6EBDF" d="M38.461,28.928c0-0.969-0.59-2.196-3.081-2.196c-1.026,0-3.835,0-3.835,0l-1.092,5.044c0,0,2.071,0,3.995,0
		C37.573,31.776,38.461,30.299,38.461,28.928L38.461,28.928z"/>
	<path fill="#E6EBDF" d="M36.973,36.831c0-0.967-0.592-2.197-3.083-2.197c-1.021,0-3.836,0-3.836,0l-1.087,5.041
		c0,0,2.073,0,3.996,0C36.083,39.675,36.973,38.2,36.973,36.831L36.973,36.831z"/>
	<path fill="#E6EBDF" d="M26.167,39.904c0-0.968-0.589-2.194-3.077-2.194c-1.026,0-3.839,0-3.839,0l-1.089,5.043
		c0,0,2.075,0,4.002,0C25.281,42.753,26.167,41.28,26.167,39.904L26.167,39.904z"/>
</g>
</svg>
