<?xml version="1.0" encoding="utf-8"?>
<!-- Generator: Adobe Illustrator 16.0.0, SVG Export Plug-In . SVG Version: 6.00 Build 0)  -->
<!DOCTYPE svg PUBLIC "-//W3C//DTD SVG 1.1//EN" "http://www.w3.org/Graphics/SVG/1.1/DTD/svg11.dtd">
<svg version="1.1" id="Layer_1" xmlns="http://www.w3.org/2000/svg" xmlns:xlink="http://www.w3.org/1999/xlink" x="0px" y="0px"
	 width="192px" height="74px" viewBox="0 0 192 74" enable-background="new 0 0 192 74" xml:space="preserve">
<g>
	<path fill-rule="evenodd" clip-rule="evenodd" fill="#E4E8DD" d="M177.516,25.249h1.049c0.008,0.014,0.012,0.026,0.016,0.039
		c0.172,0.373,0.342,0.745,0.5,1.121c0.17,0.421,0.322,0.849,0.508,1.265c0.008,0.013,0.014,0.026,0.018,0.04
		c0.133-0.307,0.346-0.801,0.48-1.107c0.127-0.284,0.254-0.573,0.381-0.857c0.049-0.11,0.059-0.132,0.059-0.171
		c0-0.096-0.1-0.096-0.186-0.096l-0.385,0.017l0.385-0.25h1.404l-0.1,0.096c-0.102,0.092-0.154,0.157-0.154,0.337
		c0,0.061,0.006,0.122,0.014,0.188c0.025,0.276,0.049,0.552,0.068,0.828c0.033,0.364,0.066,0.727,0.133,1.085
		c0.057,0.293,0.119,0.398,0.328,0.556c-0.232,0.043-0.389,0.066-0.623,0.066c-0.094,0-0.26,0-0.414-0.114
		c-0.18-0.14-0.205-0.363-0.234-0.761c-0.027-0.272-0.055-0.543-0.076-0.815c-0.018-0.258-0.027-0.517-0.051-0.775l-0.006-0.052
		l-0.027,0.057c-0.152,0.333-0.293,0.674-0.441,1.006c-0.346,0.797-0.369,0.849-0.439,1.064l0.047,0.131
		c-0.127,0.031-0.627,0.196-0.811,0.267c-0.141-0.39-0.635-1.658-1.027-2.525c-0.039,0.368-0.074,0.735-0.109,1.103
		c-0.012,0.123-0.084,0.941-0.084,1.016c0,0.096,0.021,0.122,0.193,0.14l0.383,0.057l-0.223,0.136h-0.812l0.113-0.136
		c0.021-0.031,0.043-0.057,0.057-0.096c0.025-0.07,0.039-0.193,0.057-0.368c0.031-0.267,0.066-0.53,0.098-0.796
		c0.018-0.167,0.098-0.98,0.121-1.168c0.006-0.044,0.01-0.092,0.01-0.136c0-0.113-0.045-0.17-0.176-0.17
		c-0.062,0-0.342,0.008-0.406,0.008L177.516,25.249L177.516,25.249z"/>
	<path fill-rule="evenodd" clip-rule="evenodd" fill="#E4E8DD" d="M177.324,25.249l-0.191,0.446l-0.195,0.087
		c0.01-0.043,0.047-0.206,0.047-0.222c0-0.101-0.117-0.106-0.24-0.106l-0.609,0.005c-0.053,1.707-0.053,1.855-0.053,2.087
		c0,0.123,0,0.223,0.008,0.372c0.014,0.188,0.074,0.228,0.277,0.241l0.371,0.04l-0.285,0.14h-1.457l0.098-0.14
		c0.094-0.145,0.109-0.166,0.109-0.263c0.002-0.097,0-0.547,0-0.647c0-0.184,0-0.372,0.002-0.556
		c0.016-0.376,0.037-0.753,0.037-1.125c0-0.062-0.006-0.132-0.006-0.148h-0.531c-0.27,0.009-0.273,0.017-0.418,0.236l-0.232,0.087
		l0.232-0.534H177.324L177.324,25.249z"/>
	<path fill-rule="evenodd" clip-rule="evenodd" fill="#E4E8DD" d="M171.658,50.229c-0.615,0.336-1.232,0.729-1.846,1.008
		c-1.852,0.842-3.756,1.064-5.436,1.064c-1.793,0-4.596-0.111-7.449-2.184c-3.979-2.801-5.713-7.619-5.713-11.82
		c0-8.682,7.057-12.939,12.828-12.939c2.014,0,4.088,0.504,5.77,1.568c2.797,1.849,3.527,4.257,3.918,5.546l-13.162,5.321
		l-4.314,0.338c1.402,7.113,6.217,11.258,11.539,11.258c2.857,0,4.932-1.008,6.836-1.961L171.658,50.229L171.658,50.229z
		 M166.395,33.536c1.062-0.393,1.623-0.728,1.623-1.513c0-2.241-2.52-4.817-5.547-4.817c-2.24,0-6.441,1.737-6.441,7.786
		c0,0.953,0.111,1.961,0.168,2.969L166.395,33.536L166.395,33.536z"/>
	<path fill-rule="evenodd" clip-rule="evenodd" fill="#E4E8DD" d="M149.867,51.461h-9.914c1.289-1.68,1.514-1.85,1.514-2.969v-9.131
		c0-4.37,0.057-10.587,0.223-16.413c0.057-2.856,0.281-6.442,0.336-9.019h-4.367l4.201-2.017h8.008
		c-1.734,1.009-2.295,1.345-2.518,3.306c-0.449,4.312-0.506,11.146-0.506,19.1v12.94c0,2.186,0.393,2.521,2.24,2.689
		c0.953,0.111,1.906,0.168,2.857,0.279L149.867,51.461L149.867,51.461z"/>
	<path fill-rule="evenodd" clip-rule="evenodd" fill="#E4E8DD" d="M131.496,28.103c1.287,1.064,3.977,3.305,3.977,7.562
		c0,4.146-2.354,6.105-4.705,7.955c-0.729,0.729-1.568,1.514-1.568,2.744c0,1.232,0.84,1.904,1.455,2.408l2.018,1.57
		c2.467,2.07,4.703,3.977,4.703,7.842c0,5.266-5.096,10.586-14.73,10.586c-8.123,0-12.043-3.865-12.043-8.01
		c0-2.018,1.008-4.873,4.312-6.834c3.475-2.129,8.18-2.408,10.699-2.576c-0.783-1.008-1.68-2.072-1.68-3.809
		c0-0.953,0.279-1.514,0.561-2.186c-0.617,0.055-1.232,0.111-1.793,0.111c-5.938,0-9.299-4.424-9.299-8.795
		c0-2.576,1.176-5.433,3.586-7.505c3.193-2.633,7-3.081,10.025-3.081h11.539l-3.584,2.017H131.496L131.496,28.103z M127.518,52.973
		c-0.447-0.057-0.729-0.057-1.287-0.057c-0.504,0-3.529,0.113-5.883,0.898c-1.23,0.447-4.816,1.791-4.816,5.77
		c0,3.977,3.865,6.832,9.859,6.832c5.377,0,8.232-2.576,8.232-6.047C133.623,57.51,131.777,55.998,127.518,52.973L127.518,52.973z
		 M129.145,42.33c1.285-1.287,1.398-3.08,1.398-4.09c0-4.033-2.406-10.306-7.059-10.306c-1.455,0-3.023,0.728-3.92,1.849
		c-0.953,1.176-1.232,2.689-1.232,4.145c0,3.754,2.184,9.971,7.002,9.971C126.732,43.898,128.248,43.227,129.145,42.33
		L129.145,42.33z"/>
	<path fill-rule="evenodd" clip-rule="evenodd" fill="#E4E8DD" d="M96.766,52.189c-8.906,0-13.668-6.945-13.668-13.219
		c0-7.339,5.994-13.613,14.507-13.613c8.236,0,13.389,6.442,13.389,13.221C110.994,45.188,105.896,52.189,96.766,52.189
		L96.766,52.189z M103.768,47.652c1.344-1.793,1.68-4.033,1.68-6.219c0-4.93-2.352-14.34-9.298-14.34
		c-1.848,0-3.696,0.729-5.041,1.905c-2.184,1.96-2.576,4.425-2.576,6.834c0,5.546,2.745,14.677,9.521,14.677
		C100.238,50.51,102.48,49.445,103.768,47.652L103.768,47.652z"/>
	<path fill-rule="evenodd" clip-rule="evenodd" fill="#E4E8DD" d="M66.966,52.189c-8.907,0-13.668-6.945-13.668-13.219
		c0-7.339,5.994-13.613,14.509-13.613c8.233,0,13.387,6.442,13.387,13.221C81.193,45.188,76.096,52.189,66.966,52.189L66.966,52.189
		z M73.967,47.652c1.345-1.793,1.68-4.033,1.68-6.219c0-4.93-2.352-14.34-9.297-14.34c-1.849,0-3.698,0.729-5.043,1.905
		c-2.184,1.96-2.576,4.425-2.576,6.834c0,5.546,2.745,14.677,9.523,14.677C70.439,50.51,72.679,49.445,73.967,47.652L73.967,47.652z
		"/>
	<path fill-rule="evenodd" clip-rule="evenodd" fill="#E4E8DD" d="M49.736,50.234l-7.509,1.732
		c-3.046,0.473-5.777,0.893-8.665,0.893c-14.495,0-20.008-10.66-20.008-19.01c0-10.188,7.825-19.641,21.216-19.641
		c2.836,0,5.567,0.421,8.035,1.103c3.938,1.104,5.777,2.468,6.932,3.257l-4.358,4.148l-1.837,0.42l1.312-2.101
		c-1.786-1.732-5.042-4.936-11.238-4.936c-8.299,0-14.548,6.302-14.548,15.492c0,9.873,7.143,19.168,18.59,19.168
		c3.362,0,5.094-0.684,6.669-1.312V40.99l-7.93,0.422l4.201-2.258h11.133l-1.365,1.312c-0.368,0.314-0.421,0.42-0.526,0.84
		c-0.053,0.473-0.105,1.996-0.105,2.521V50.234L49.736,50.234z"/>
</g>
</svg>
