<?xml version="1.0" encoding="utf-8"?>
<!-- Generator: Adobe Illustrator 16.0.0, SVG Export Plug-In . SVG Version: 6.00 Build 0)  -->
<!DOCTYPE svg PUBLIC "-//W3C//DTD SVG 1.1//EN" "http://www.w3.org/Graphics/SVG/1.1/DTD/svg11.dtd">
<svg version="1.1" id="Layer_1" xmlns="http://www.w3.org/2000/svg" xmlns:xlink="http://www.w3.org/1999/xlink" x="0px" y="0px"
	 width="192px" height="74px" viewBox="0 0 192 74" enable-background="new 0 0 192 74" xml:space="preserve">
<g>
	<g>
		<g>
			<path fill="#E6EBDF" d="M51.852,42.418l0.494-0.146l-0.294-0.408c0,0,0.338-0.162,0.791-0.185
				c0.502-0.021,0.958,0.075,1.205,0.296l1.265-0.301l0.166-0.266c-0.884-0.695-1.956-1.373-3.082-1.131
				C51.632,40.439,51,40.906,51,40.906v0.663C51,41.679,51.593,42.087,51.852,42.418z"/>
			<path fill="#E6EBDF" d="M55.512,37.029c0.479,0.15,2.066,0.923,2.879,1.447l0.922-1.297c-0.332-0.336-2.509-1.662-3.101-1.957
				L55.512,37.029z"/>
			<path fill="#E6EBDF" d="M50.604,34.888l0.59,1.698c0.812-0.184,2.768-0.256,3.358,0.15l0.332-1.92
				c-0.591-0.294-1.438-0.481-2.215-0.481C51.896,34.335,51.047,34.558,50.604,34.888z"/>
			<path fill="#E6EBDF" d="M48.721,37.99c0.368-0.359,1.11-0.922,1.586-1.182l-0.627-1.438
				C49.275,35.775,48.387,36.875,48.721,37.99z"/>
		</g>
		<g>
			<g>
				<g>
					<path fill="#E6EBDF" d="M82.293,38.521c0,1.282,0.535,1.685,2.463,1.685c1.921,0,2.805-0.588,4.062-3.182h0.454l-0.454,4.064
						H76.864v-0.457c1.793-0.451,1.979-0.854,1.979-2.539V28.089c0-1.39-0.347-1.79-1.979-2.193v-0.455h7.406v0.455
						c-1.55,0.403-1.978,0.723-1.978,2.087V38.521z"/>
					<path fill="#E6EBDF" d="M94.301,38.92c0,1.017,0.507,1.578,1.631,1.711v0.457H89.59v-0.457
						c1.364-0.268,1.689-0.641,1.689-1.923v-5.377c0-1.23-0.352-1.576-1.822-1.873v-0.455l4.389-0.372h0.455V38.92z M92.803,24.347
						c0.963,0,1.737,0.774,1.737,1.737c0,0.964-0.774,1.767-1.737,1.767c-0.965,0-1.768-0.803-1.768-1.767
						C91.035,25.122,91.838,24.347,92.803,24.347z"/>
					<path fill="#E6EBDF" d="M100.878,33.171c1.019-0.937,1.552-1.202,2.354-1.202c1.789,0,2.994,1.709,2.994,4.172
						c0,3.289-1.497,4.626-3.743,4.626c-1.206,0-1.605-0.536-1.605-1.685V33.171z M100.878,24.347h-0.455l-4.09,0.293v0.455
						c0.937,0.162,1.523,0.641,1.523,1.498v14.495c1.524,0.292,3.021,0.4,4.922,0.4c4.921,0,6.79-2.568,6.79-5.672
						c0-2.941-2.084-5.211-4.811-5.211c-1.444,0-2.676,0.587-3.88,1.845V24.347z"/>
					<path fill="#E6EBDF" d="M114.008,34.535c0.079-1.928,0.908-3.207,2.14-3.207c1.229,0,2.139,1.336,2.247,3.207H114.008z
						 M121.654,35.15c-0.373-2.78-2.43-4.545-5.293-4.545c-3.18,0-5.615,2.378-5.615,5.507c0,3.075,2.351,5.376,5.508,5.376
						c2.434,0,4.492-1.338,5.4-3.505h-0.453c-0.962,1.472-2.141,2.196-3.609,2.196c-1.873,0-3.744-1.715-3.584-5.029H121.654z"/>
					<path fill="#E6EBDF" d="M131.336,34.509c-0.881-0.856-1.58-1.31-2.274-1.31c-0.907,0-1.472,0.373-2.245,1.441v4.119
						c0,1.206,0.24,1.578,1.711,1.871v0.457h-6.417v-0.457c1.339-0.319,1.682-0.723,1.682-1.871v-5.321
						c0-1.286-0.558-1.872-1.84-1.98v-0.455l4.409-0.398h0.455v3.209h0.053c0.99-2.195,2.088-3.209,3.346-3.209
						c0.666,0,1.309,0.293,1.789,0.853L131.336,34.509z"/>
					<path fill="#E6EBDF" d="M148.367,31.003v0.455c1.285,0.268,1.577,1.07,0.668,3.21l-1.391,3.236l-2.139-4.412
						c-0.619-1.285-0.619-1.873,0.533-2.034v-0.455h-5.834h-0.183h-2.919v-3.902h-0.508c-1.419,1.819-3.076,3.423-4.332,4.199v0.509
						h1.818v6.473c0,2.298,1.523,3.207,3.423,3.207c1.497,0,2.489-0.535,3.235-1.795l-0.32-0.292
						c-0.48,0.564-0.938,0.804-1.468,0.804c-1.419,0-1.849-0.962-1.849-2.597v-5.8h2.707c1.468,0,1.896,0.533,2.54,1.897
						l3.688,7.782c-1.23,3.316-2.299,4.654-4.172,4.654c-0.4,0-0.723-0.028-1.365-0.244l-0.613,3.05
						c0.377,0.054,0.589,0.054,0.856,0.054c2.085,0,3.235-0.885,4.306-3.343l5.08-11.605c0.83-1.873,1.15-2.245,2.432-2.596v-0.455
						H148.367z"/>
					<path fill="#E6EBDF" d="M96.617,59.229c0.187,1.363,0.857,2.137,2.383,2.432v0.455h-7.731V61.66
						c1.712-0.426,2.009-1.414,1.712-3.445l-1.283-8.937h-0.055l-5.078,12.837h-0.563l-5.028-12.837h-0.052l-1.364,9.202
						c-0.268,1.819,0.08,3.048,1.846,3.18v0.455h-5.668V61.66c1.684-0.076,2.404-1.043,2.778-3.445L80.066,48
						c-0.617-0.644-1.473-1.047-2.274-1.072v-0.455h5.643l4.092,10.321l4.142-10.321h5.299v0.455
						c-1.605,0.295-1.979,1.094-1.769,2.539L96.617,59.229z"/>
					<path fill="#E6EBDF" d="M100.227,54.229c0-1.124-0.373-1.523-1.58-1.741v-0.455l4.146-0.4h0.455v7.436
						c0,1.203,0.774,1.766,1.874,1.766c1.013,0,1.63-0.426,2.511-1.821v-5.026c0-0.83-0.537-1.311-1.579-1.498v-0.455l4.147-0.4
						h0.455v8.022c0,1.336,0.268,1.657,1.605,2.005v0.455l-4.629,0.4v-2.459h-0.053c-1.123,1.711-2.381,2.459-4.012,2.459
						c-2.084,0-3.342-1.15-3.342-3.074V54.229z"/>
					<path fill="#E6EBDF" d="M114.586,52.836h-1.819v-0.507c1.257-0.774,2.917-2.38,4.329-4.196h0.515v3.9h3.313v0.803h-3.313v5.803
						c0,1.633,0.426,2.596,1.842,2.596c0.535,0,0.99-0.243,1.472-0.805l0.321,0.296c-0.751,1.258-1.737,1.79-3.237,1.79
						c-1.898,0-3.422-0.906-3.422-3.207V52.836z"/>
					<path fill="#E6EBDF" d="M122.875,54.229c0-1.124-0.374-1.523-1.58-1.741v-0.455l4.149-0.4h0.455v7.436
						c0,1.203,0.772,1.766,1.869,1.766c1.015,0,1.632-0.426,2.513-1.821v-5.026c0-0.83-0.533-1.311-1.576-1.498v-0.455l4.144-0.4
						h0.456v8.022c0,1.336,0.268,1.657,1.604,2.005v0.455l-4.628,0.4v-2.459h-0.053c-1.123,1.711-2.38,2.459-4.012,2.459
						c-2.084,0-3.342-1.15-3.342-3.074V54.229z"/>
					<path fill="#E6EBDF" d="M141.809,60.378c-0.697,0.695-1.284,1.046-1.897,1.046c-0.832,0-1.394-0.725-1.394-1.818
						c0-1.364,0.775-1.98,3.291-3.051V60.378z M144.854,55.404c0-2.78-2.27-3.771-4.437-3.771c-2.354,0-3.983,1.259-4.521,3.426
						h0.402c0.64-1.126,1.656-1.686,3.021-1.686c1.819,0,2.514,0.856,2.514,2.649c-2.459,0.905-6.469,1.12-6.469,3.849
						c0,1.471,1.363,2.645,3.021,2.645c1.229,0,2.165-0.293,3.181-1.203l0.242-0.21c0.506,1.013,1.202,1.413,2.432,1.413
						c1.473,0,2.354-0.695,2.463-1.949h-0.428c-0.109,0.614-0.375,0.934-0.805,0.934c-0.453,0-0.617-0.397-0.617-1.336V55.404z"/>
					<path fill="#E6EBDF" d="M148.787,48.133c0-1.419-0.455-1.926-1.898-2.008v-0.453l4.465-0.294h0.455v14.277
						c0,1.336,0.295,1.657,1.789,2.005v0.455h-6.709V61.66c1.471-0.236,1.898-0.721,1.898-2.005V48.133z"/>
				</g>
				<path fill="#E6EBDF" d="M153.97,60.195h0.787v2.045h0.313v-2.045h0.787v-0.277h-1.888V60.195z"/>
				<path fill="#E6EBDF" d="M158.303,62.24v-1.371c0-0.068,0.006-0.361,0.006-0.582h-0.006l-0.654,1.953h-0.312l-0.651-1.949h-0.007
					c0,0.217,0.007,0.51,0.007,0.578v1.371h-0.305v-2.322h0.451l0.663,1.965h0.005l0.658-1.965h0.449v2.322H158.303z"/>
			</g>
		</g>
	</g>
	<path fill="#E6EBDF" d="M72.097,32.426c-0.153-0.201-0.528-0.037-0.528-0.037l-6.035,2.238c-0.468-1.142-1.006-2.219-1.62-3.215
		l1.954-5.331c0,0,0.244-0.53,0.017-0.661c-0.226-0.134-0.593,0.219-0.593,0.219l-3.549,2.912c-1.383-1.482-3.007-2.677-4.874-3.525
		c-0.695-0.31-1.421-0.568-2.177-0.782l-1.1-4.219c0,0-0.095-0.422-0.378-0.422c-0.282,0-0.36,0.399-0.36,0.399L52.15,23.73
		c-0.771-0.097-1.567-0.153-2.392-0.153c-2.645,0-4.997,0.502-7.054,1.426c-0.883,0.395-1.711,0.869-2.486,1.411
		c-0.128,0.09-0.252,0.189-0.379,0.283c-0.729-1.885-1.308-3.424-1.416-3.887c0.408-0.368,1.261-1.713,1.47-2.62
		c0.29-1.27,0.2-1.871-0.104-2.832c-0.221-0.702-0.666-1.36-0.638-1.804c0.024-0.33,0.2-0.568,0.351-0.721
		c-0.082-0.466-0.386-0.669-0.745-0.716c-0.333-0.045-0.593,0.054-0.888,0.066c-0.073-0.135-0.223-0.111-0.11-0.591
		c0.168-0.729,1.565-1.07,2.708-1.515c1.447-0.56,2.257-1.604,2.306-3.277c0.035-1.216-0.643-2.116-1.494-2.522
		c-0.172,0.492-0.877,1.152-1.366,1.421c-0.484,0.266-1.152,0.367-1.636,0.255c0.106-0.896-0.308-1.657-0.961-1.965
		c-0.208,0.38-0.996,0.907-2.177,0.871c-1.183-0.037-1.258-0.316-2.919-0.311c-2.363,0.003-4.321,1.428-4.559,3.521
		c-0.157,1.358,0.366,2.5,0.761,3.091c-0.293,0.222-0.985,0.886-1.108,1.084c-0.17-0.198-0.641-0.464-1.204-0.094
		c0.12,0.295,0.144,0.657,0.049,1.004c-0.099,0.342-0.961,2.017-1.06,3.37c-0.165,2.288,1.155,3.838,2.266,4.279
		c-0.245,0.37-0.295,0.763-0.124,1.084c0.113,0.212,0.342,0.419,0.813,0.419c-0.271,0.295-0.374,0.74-0.2,1.18
		c0.2,0.492,0.763,1.208,1.256,1.208c-0.024,0.417,0.172,1.4,0.271,1.794c-0.172,0.32-0.346,0.561-0.32,1.152
		c0.024,0.615,0.417,1.112,0.909,1.211c0.125,0.295,0.215,0.62,0.389,0.817c0.172,0.197,0.325,0.438,0.695,0.683
		c0.368,0.247,0.787,0.442,1.278,0.442s0.926,0.025,1.148-0.048c0.009,0.141,0.188,1.443,0.244,2.89
		C32.488,39.082,32,43.076,32,47.358v0.003c0,7.678,2.061,14.518,6.243,18.924c0,0,0.174,0.297,0.844,0.731
		c0,0,1.276-2.237,3.265-4.779c0.504-0.642,1.066-1.267,1.702-1.868c0.98-0.852,1.921-1.608,2.843-2.279
		c2.575-1.751,5.547-3.089,8.297-3.655c-3.155,1.626-4.945,2.499-7.913,5.04c-1.876,1.611-4.871,4.451-6.914,8.345
		c0.426,0.337,0.999,0.685,1.674,0.754c0.435-0.507,2.658-4.587,6.07-7.865c6.906-6.466,15.042-7.962,19.301-7.88
		c0.24-1.752,0.361-3.583,0.361-5.47c0-3.091-0.322-6.026-0.964-8.718l5.085-5.66C71.896,32.98,72.248,32.629,72.097,32.426z
		 M64.691,27.186l-3.91,8.338c-0.368-0.295-1.911-1.594-2.643-1.852L64.691,27.186z M53.333,21.803l1.868,10.57
		c-0.59-0.297-2.427-0.465-3.24-0.317L53.333,21.803z M49.139,33.105c-0.625,0.352-1.563,1.299-1.821,2.07l-4.658-7.948
		L49.139,33.105z M46.109,40.836l-1.989-1.372c0.024-0.466-0.099-1.226-0.13-1.623c-0.002-0.044-0.016-0.112-0.028-0.172l2.49,1.2
		c-0.221,0.346-0.301,0.553-0.374,0.97C46.003,40.258,46.059,40.49,46.109,40.836z M32.181,8.127
		c0.82-0.047,1.876,0.174,2.415,0.174c0.544,0,1.927-0.134,2.248-0.381c0.172,0.395,0.103,0.805-0.107,1.164
		c0.418,0.221,1.6,0.438,2.095,0.414c0.981-0.048,1.991-0.587,2.354-1.1c0.151,0.535,0.043,1.333-0.436,1.763
		c-0.961,0.862-3.225,1.329-3.888,1.823c-0.549,0.405-0.763,0.639-0.911,0.983c-0.221-0.223-0.347-0.403-0.71-0.367
		c-0.42,0.047-0.645,0.466-1.062,0.439c-0.541-0.031-0.961-0.935-1.6-0.96c-0.983-0.039-1.376,0.763-1.795,0.789
		c-0.295,0.018-0.693-0.414-0.86-0.638c-0.297-0.395-0.465-1.062-0.429-1.699C29.554,9.498,30.386,8.221,32.181,8.127z
		 M26.97,19.512c-0.147-0.417-0.337-0.679-0.297-1.249c0.05-0.645,0.473-1.187,0.669-1.705c0.156-0.406,0.069-1.106-0.101-1.278
		c0.221-0.049,0.671,0.226,0.983,0.147c0.393-0.099,0.513-0.231,0.659-0.552c0.149-0.318,0.353-0.579,0.685-0.603
		c0.306-0.022,0.926,0.287,1.437,0.172c0.666-0.147,0.935-0.811,1.479-0.811c0.541,0,0.982,0.71,1.5,0.787
		c0.518,0.073,1.327-0.543,1.845-0.346c0.518,0.198,0.245,0.987,0.641,1.303c0.368,0.297,1.228-0.049,1.475-0.097
		c-0.075,0.346-0.172,0.59-0.148,0.959c0.026,0.37,0.62,1.479,0.639,1.869c0.024,0.494,0.051,0.911-0.146,1.355
		c-0.051-1.477-1.807-3.273-5.693-3.348C29.199,16.051,26.87,17.42,26.97,19.512z M35.352,20.377
		c-0.393-0.368-1.187-1.063-2.86-1.066c-1.377-0.007-2.446,0.545-2.592,1.013c-0.099-0.641-0.024-1.074,0.426-1.456
		c0.494-0.418,1.286-0.648,2.073-0.648c1.18,0,1.949,0.312,2.385,0.667C35.31,19.314,35.398,19.812,35.352,20.377z M30.343,24.729
		c-0.176,0.124-0.526,0.657-0.596,0.977c-0.314-0.189-0.634-0.883-0.714-1.182c0.274-0.46,0.841-0.903,1.112-0.954
		c-0.321-0.022-0.837,0-1.28,0.075c-0.146-0.295-0.196-0.813-0.122-1.152l0.493,0.021l-0.272-0.666
		c0.344-0.295,1.647-0.959,2.389-0.983c0.066,0.339,0.071,0.615,0.047,0.738c-0.024,0.124-0.073,0.271-0.222,0.342
		c-0.146,0.077-0.645,0.33-0.645,0.33c0.318-0.026,0.966-0.007,1.187,0.016c0.221,0.024,0.321,0.075,0.321,0.295
		s-0.061,0.443-0.183,0.615c-0.125,0.174-0.49,0.144-0.686,0.167c0.099,0.221,0.127,0.325,0.127,0.546
		c0,0.224-0.071,0.323-0.268,0.422C30.831,24.434,30.587,24.554,30.343,24.729z M34.278,29.872
		c-0.295-0.173-1.107-0.568-1.748-0.542c-0.664,0.026-1.225,0.16-1.746,0.492c-0.22-0.147-0.29-0.445-0.149-0.787
		c0.143-0.344,0.346-0.394,0.346-0.394l-0.188-3.225c0,0,0.907-0.645,1.154-0.718c0.243-0.073,0.356-0.266,0.356-0.511
		c0.401,0.271,0.992,0.875,1.309,1.329c0.297,0.419,0.471,0.884,0.495,1.402c0.022,0.516,0.029,1.131-0.075,1.772
		c0.201,0.172,0.393,0.32,0.418,0.589C34.474,29.552,34.375,29.649,34.278,29.872z M35.506,39.441
		c-0.122-0.223-0.902-12.179-0.927-12.596L35,26.378v-0.124c0-0.024-0.793-0.196-0.963-0.469l-0.064-3.664
		c-0.643-0.049-1.246-0.254-1.492-0.497c-0.306-0.309-0.519-0.687-0.175-1.352c0.32,0.224,1.268,0.495,2.08,0.495
		c0.174,0,0.542,0.386,0.748,0.467c0.236,0.092,0.632,0.311,0.817,0.393c0.169,0.073,0.273,0.467,0.324,0.615
		c0.048,0.147,5.974,15.526,6.072,15.696c0.099,0.174,0.445,2.754,0.466,2.954c0.026,0.196,0.914,2.263,1.083,2.46
		c-0.786-0.022-2.075,0.428-3.134,1.463c-1.032,1.008-1.948,3.229-2.154,4.252C38.534,48.525,35.631,39.664,35.506,39.441z
		 M41.337,60.034c-0.556,0.941-2.118,2.853-2.664,3.573c0.591-1.178,1.049-4.03,1.011-6.244c-0.024-1.438-0.46-4.61-0.08-6.715
		c0.41-2.256,1.049-3.525,2.562-4.916c0.768-0.711,2.346-1.616,4.599-1.003l1.821,3.429c-0.973-0.188-2.262-0.02-3.121,0.639
		c-1.617,1.24-2.161,2.914-2.431,5.356C42.777,56.518,42.202,58.566,41.337,60.034z M43.213,58.812
		c0.445-0.998,1.027-3.841,1.19-4.789c0.21-1.223,0.405-3.003,1.859-4.201c0.714-0.59,1.888-0.666,2.352-0.53l2.064,4.197
		c0.182,0.443,0.789,0.602,1.193,0.577C49.94,54.693,45.074,57.004,43.213,58.812z M49.977,47.062c0,0,0.379,0,0.779,0
		c-0.141,0.115-0.31,0.283-0.477,0.33C50.129,47.285,49.9,47.062,49.977,47.062z M53.121,53.705l-0.738-2.533l1.689-2.368
		c0,0-1.757,0.636-2.299,0.681c-0.107,0.01-0.956,0.178-1.138-0.65c0,0-0.141-0.557-0.141-0.781c0-0.209,0.185-0.467,0.367-0.432
		c0.335,0.065,0.518-0.073,0.518-0.073l0.354-0.506C51.711,47.039,51.688,47,51.665,47h0.266l0.037-0.428
		c0,0-1.013-0.553-1.403-0.57C50.173,45.982,50,46.111,50,46.111v-0.372l1.113-0.93l-1.14-0.473l-0.627,0.109l0.407-2.583
		l-0.213-0.439l-1.117,0.663l-0.037-1.464c0.037-0.271,0.554-0.785,0.977-1.029l-0.075-0.889c-0.443,0.271-0.935,0.429-1.232,0.835
		c-0.266,0.363-0.592,0.919-0.554,1.4c-0.332-0.317-0.401-0.841-0.332-1.204c0.097-0.504,0.293-0.861,0.811-1.305
		c-0.147-0.417-0.184-1.178-0.035-1.883c0.243-1.164,1.586-3.394,4.833-3.412c1.923-0.011,4.262,1.183,5.856,2.396
		c2.043,1.548,3.242,2.976,3.333,3.454c0.038,0.205,0.111,0.491,0.038,0.665c-0.222-0.297-1.809-1.811-1.809-1.811l-0.997,1.262
		l1.881,1.653c-0.441,0.26-0.886,0.463-1.625,0.371c-0.872-0.111-2.804-1.33-2.84-2.287c-0.787-0.335-2.583-0.873-4.059-0.85
		c-0.964,0.014-2.033,0.258-2.363,0.369c-0.333,0.11-0.579-0.096-0.834-0.207l-0.118,0.072l0.731,1.13
		c0.221,0.109,0.634-0.147,1.218-0.252c0.996-0.179,2.347-0.03,3.358,0.549c0.702,0.403,2.657,2.027,3.062,2.436
		c0.406,0.405,1.035,0.515,1.329,0.256c0.295-0.256,0.714-0.249,0.679,0.081c-0.037,0.332-0.2,0.695,0.134,0.845
		c0.306,0.136,0.479-0.149,0.7-0.297c0.224-0.149,0.443-0.183,0.702-0.038c-0.184,0.368-0.664,0.962-1.072,1.293
		c-0.405,0.331-1.032,0.629-1.437,0.479l-0.259,0.629l1.845,4.244c0.483,0.975,0.549,1.236,0.943,1.891
		C57.563,52.062,54.235,53.246,53.121,53.705z M62.955,51.143c-0.328-0.59-0.596-1.05-0.941-1.962c0,0-1.089-2.015-1.298-2.404
		c-0.183-0.348-0.302-0.843,0.031-1.36c0.33-0.518,1.15-1.232,1.628-1.521l0.12,2.517c0,0,1.646,3.116,2.366,4.73
		C64.185,51.129,63.545,51.143,62.955,51.143z M63.66,39.908c-0.037-0.627-0.768-2.324-1.208-2.692l7.653-3.396L63.66,39.908z"/>
</g>
</svg>
