<?xml version="1.0" encoding="utf-8"?>
<!-- Generator: Adobe Illustrator 16.0.0, SVG Export Plug-In . SVG Version: 6.00 Build 0)  -->
<!DOCTYPE svg PUBLIC "-//W3C//DTD SVG 1.1//EN" "http://www.w3.org/Graphics/SVG/1.1/DTD/svg11.dtd">
<svg version="1.1" id="Layer_1" xmlns="http://www.w3.org/2000/svg" xmlns:xlink="http://www.w3.org/1999/xlink" x="0px" y="0px"
	 width="192px" height="74px" viewBox="0 0 192 74" enable-background="new 0 0 192 74" xml:space="preserve">
<g>
	<path fill-rule="evenodd" clip-rule="evenodd" fill="#E6EBDF" d="M42.667,43.348v2.499c0,4.409,1.748,8.326,3.529,10.995
		c2.016,3.02,4.7,4.805,7.777,6.744c2.427,1.53,7.329,3.229,10.64,3.883c4.083,0.806,8.202,1.412,13.111,1.412h2.419
		c15.089,0,30.42-4.382,40.29-9.604v-7.105c-2.671,1.413-5.96,3.278-9.042,4.231c-0.656,0.201-1.689,0.648-2.376,0.903
		c-0.846,0.312-1.675,0.518-2.512,0.845c-1.251,0.493-3.773,1.17-5.169,1.47c-1.796,0.384-3.505,0.874-5.387,1.249
		c-1.941,0.388-3.669,0.597-5.685,0.951c-1.863,0.327-4.07,0.442-6.059,0.577c-2.078,0.144-4.233,0.234-6.48,0.234h-0.469
		c-8.001,0-15.635-1.257-20.976-3.929c-5.139-2.57-9.943-7.334-9.943-14.965v-0.704c0-3.59,1.103-6.347,2.14-8.947
		c0.456-1.141,1.313-2.596,1.967-3.576c0.409-0.613,0.741-1.059,1.17-1.641c0.383-0.52,0.981-1.082,1.281-1.529v-2.499
		c-1.244,0.834-2.554,2.474-3.609,3.574c-1.198,1.249-2.087,2.641-3.074,4.109C44.746,34.706,42.667,39.777,42.667,43.348
		L42.667,43.348z"/>
	<path fill-rule="evenodd" clip-rule="evenodd" fill="#E6EBDF" d="M136.36,29.841v-2.264c-0.026-0.042-0.363-2.533-0.421-2.858
		c-0.147-0.817-0.443-1.86-0.725-2.555c-0.707-1.734-1.293-2.906-2.346-4.291c-1.951-2.561-4.272-4.411-7.179-6.018
		c-5.332-2.949-13.448-4.736-21.732-4.736h-0.703c-8.547,0-15.617,1.422-22.298,3.311c-1.765,0.499-3.2,1.014-4.844,1.559
		c-1.361,0.451-3.353,1.206-4.584,1.818c-1.46,0.725-2.916,1.349-4.345,2.057c-0.757,0.375-3.665,2.154-4.138,2.264v1.874
		c0.644-0.149,3.017-1.461,3.929-1.848c1.266-0.539,2.854-1.338,4.128-1.729c0.578-0.176,1.532-0.538,2.106-0.782
		c0.696-0.297,1.423-0.478,2.162-0.726c1.41-0.473,2.985-1.005,4.478-1.379c3.21-0.805,6.041-1.459,9.555-2.078
		c2.994-0.528,7.204-1.061,10.573-1.061h3.514c6.84,0,14.246,1.571,18.634,4.009c2.661,1.479,4.45,2.724,6.286,5.035
		c1.386,1.741,3.109,5.213,3.109,8.29v1.327c0,3.244-1.684,6.731-3.09,8.621c-0.854,1.147-1.698,2.167-2.746,3.113
		c-0.508,0.458-2.883,2.344-3.455,2.477v5.153c1.101-0.092,4.413-2.225,5.263-2.856c1.569-1.166,2.975-2.508,4.17-4.028
		c1.362-1.729,2.097-2.995,3.087-5.113c0.447-0.959,0.706-1.943,1.033-3.028C135.913,32.959,136.352,29.855,136.36,29.841
		L136.36,29.841z"/>
	<path fill-rule="evenodd" clip-rule="evenodd" fill="#E6EBDF" d="M94.276,38.508v0.938c0,5.368,3.293,9.291,8.667,9.291h1.015
		c1.627,0,2.788-0.396,3.953-0.889c1.267-0.54,1.911-1.456,2.859-2.1l-3.065-2.867c-0.603,0.901-2.275,1.796-3.825,1.796h-0.858
		c-2.032,0-3.903-1.728-3.903-3.67V40.46h12.18v-2.108c0-2.483-0.889-4.875-1.974-6.303c-1.03-1.355-3.119-2.91-5.444-2.91h-1.482
		c-2.457,0-4.679,1.542-5.877,2.868C95.296,33.361,94.276,35.94,94.276,38.508L94.276,38.508z M99.118,36.633v0.547h7.339v-0.39
		c0-1.938-1.394-3.67-3.436-3.67h-0.392C100.833,33.12,99.118,34.874,99.118,36.633L99.118,36.633z"/>
	<path fill-rule="evenodd" clip-rule="evenodd" fill="#E6EBDF" d="M65.466,48.424h4.763V33.355h4.294
		c0.946,0,1.718,0.731,1.718,1.639v13.43h4.841V35.072c0-3.168-2.156-5.622-5.309-5.622H65.466V48.424L65.466,48.424z"/>
	<path fill-rule="evenodd" clip-rule="evenodd" fill="#E6EBDF" d="M84.595,42.801c0,3.208,2.084,5.623,5.231,5.623h3.279v-4.06
		h-2.42c-0.717,0-1.25-0.83-1.25-1.563v-9.446h3.67v-3.904h-3.67V24.22h-4.84V42.801L84.595,42.801z"/>
	<path fill-rule="evenodd" clip-rule="evenodd" fill="#E6EBDF" d="M114.108,43.817c0,1.295,0.785,2.473,1.463,3.144
		c0.364,0.36,0.938,0.659,1.472,0.872c0.746,0.296,1.131,0.255,1.906,0.436V21.565h-4.841V43.817L114.108,43.817z"/>
	<path fill-rule="evenodd" clip-rule="evenodd" fill="#E6EBDF" d="M56.233,33.901l0.019,9.447c0,3.201,1.876,5.243,4.919,5.31
		V29.451h-4.822L56.233,33.901L56.233,33.901z"/>
	<polygon fill-rule="evenodd" clip-rule="evenodd" fill="#E6EBDF" points="56.331,26.796 61.171,26.796 61.171,22.189 
		56.331,22.189 56.331,26.796 	"/>
	<path fill-rule="evenodd" clip-rule="evenodd" fill="#E6EBDF" d="M124.173,21.543c0.325,0,0.642,0.083,0.953,0.25
		c0.309,0.167,0.551,0.405,0.724,0.717c0.173,0.311,0.26,0.635,0.26,0.973c0,0.334-0.086,0.655-0.256,0.962
		c-0.171,0.309-0.41,0.548-0.718,0.718c-0.307,0.171-0.628,0.257-0.963,0.257c-0.337,0-0.658-0.086-0.965-0.257
		c-0.309-0.17-0.546-0.41-0.718-0.718c-0.173-0.308-0.258-0.628-0.258-0.962c0-0.338,0.088-0.662,0.261-0.973
		c0.173-0.312,0.415-0.549,0.726-0.717C123.528,21.626,123.847,21.543,124.173,21.543L124.173,21.543z M124.173,21.864
		c-0.273,0-0.537,0.07-0.795,0.209c-0.259,0.14-0.46,0.339-0.605,0.598c-0.146,0.259-0.219,0.529-0.219,0.811
		c0,0.279,0.072,0.546,0.214,0.802c0.144,0.256,0.344,0.456,0.601,0.599c0.257,0.144,0.525,0.215,0.805,0.215
		c0.277,0,0.547-0.071,0.804-0.215c0.256-0.143,0.455-0.343,0.598-0.599s0.212-0.523,0.212-0.802c0-0.282-0.07-0.552-0.216-0.811
		c-0.145-0.259-0.347-0.458-0.605-0.598C124.707,21.934,124.443,21.864,124.173,21.864L124.173,21.864z M123.322,24.554v-2.085
		h0.716c0.245,0,0.423,0.018,0.531,0.057c0.111,0.039,0.197,0.106,0.264,0.202c0.063,0.097,0.097,0.198,0.097,0.306
		c0,0.153-0.055,0.285-0.163,0.398s-0.253,0.176-0.434,0.19c0.074,0.031,0.134,0.068,0.179,0.111
		c0.083,0.083,0.186,0.22,0.308,0.414l0.255,0.408h-0.412l-0.185-0.33c-0.146-0.257-0.263-0.419-0.352-0.484
		c-0.062-0.049-0.152-0.072-0.271-0.072h-0.197v0.886H123.322L123.322,24.554z M123.658,23.38h0.41c0.193,0,0.327-0.03,0.396-0.088
		c0.072-0.058,0.108-0.135,0.108-0.231c0-0.062-0.019-0.117-0.053-0.166c-0.034-0.048-0.081-0.085-0.142-0.109
		c-0.062-0.024-0.173-0.036-0.339-0.036h-0.382V23.38L123.658,23.38z"/>
</g>
</svg>
