<?xml version="1.0" encoding="utf-8"?>
<!-- Generator: Adobe Illustrator 16.0.0, SVG Export Plug-In . SVG Version: 6.00 Build 0)  -->
<!DOCTYPE svg PUBLIC "-//W3C//DTD SVG 1.1//EN" "http://www.w3.org/Graphics/SVG/1.1/DTD/svg11.dtd">
<svg version="1.1" id="Layer_1" xmlns="http://www.w3.org/2000/svg" xmlns:xlink="http://www.w3.org/1999/xlink" x="0px" y="0px"
	 width="192px" height="74px" viewBox="0 0 192 74" enable-background="new 0 0 192 74" xml:space="preserve">
<g>
	<path fill="#E6EBDF" d="M68.807,40.641l-1.11,3.107h-0.063c-0.198-0.729-0.531-1.762-1.051-3.074l-5.944-14.909h-5.811v23.704
		h3.832V34.897c0-0.899-0.02-1.986-0.058-3.23c-0.019-0.629-0.091-1.134-0.108-1.518h0.084c0.195,0.893,0.397,1.574,0.543,2.029
		l7.126,17.291h2.682l7.073-17.447c0.161-0.398,0.331-1.174,0.487-1.873h0.083c-0.092,1.727-0.171,3.305-0.181,4.257v15.063h4.088
		V25.765h-5.58L68.807,40.641z"/>
	<rect x="84.33" y="32.482" fill="#E6EBDF" width="3.997" height="16.987"/>
	<path fill="#E6EBDF" d="M86.369,25.263c-0.658,0-1.231,0.224-1.702,0.667c-0.474,0.444-0.713,1.005-0.713,1.666
		c0,0.651,0.237,1.2,0.705,1.634c0.466,0.432,1.041,0.651,1.71,0.651c0.669,0,1.247-0.219,1.717-0.65
		c0.475-0.434,0.714-0.983,0.714-1.634c0-0.638-0.233-1.193-0.694-1.648C87.646,25.493,87.061,25.263,86.369,25.263z"/>
	<path fill="#E6EBDF" d="M102.472,32.312c-0.768-0.159-1.519-0.24-2.232-0.24c-1.833,0-3.47,0.393-4.86,1.168
		c-1.392,0.776-2.471,1.885-3.204,3.295c-0.731,1.407-1.101,3.049-1.101,4.882c0,1.604,0.36,3.077,1.07,4.375
		c0.71,1.301,1.717,2.318,2.99,3.023c1.272,0.705,2.741,1.062,4.368,1.062c1.898,0,3.521-0.38,4.82-1.129l0.053-0.031V45.06
		l-0.168,0.122c-0.59,0.43-1.248,0.771-1.955,1.018c-0.706,0.246-1.35,0.371-1.914,0.371c-1.568,0-2.826-0.49-3.74-1.457
		c-0.916-0.969-1.38-2.328-1.38-4.039c0-1.723,0.483-3.118,1.438-4.147c0.951-1.025,2.212-1.546,3.746-1.546
		c1.314,0,2.594,0.444,3.805,1.323l0.168,0.122v-3.857l-0.054-0.03C103.865,32.682,103.244,32.472,102.472,32.312z"/>
	<path fill="#E6EBDF" d="M115.639,32.187c-1.004,0-1.903,0.323-2.673,0.959c-0.675,0.558-1.163,1.322-1.538,2.277h-0.041v-2.941
		h-3.996v16.987h3.996v-8.689c0-1.479,0.335-2.691,0.996-3.608c0.652-0.906,1.521-1.365,2.584-1.365c0.36,0,0.764,0.059,1.201,0.176
		c0.434,0.117,0.746,0.244,0.932,0.377l0.169,0.122v-4.029l-0.065-0.028C116.832,32.267,116.305,32.187,115.639,32.187z"/>
	<path fill="#E6EBDF" d="M126.491,32.072c-2.802,0-5.026,0.821-6.612,2.439c-1.586,1.619-2.39,3.859-2.39,6.66
		c0,2.66,0.784,4.799,2.333,6.357c1.547,1.559,3.654,2.35,6.26,2.35c2.715,0,4.896-0.832,6.481-2.474
		c1.585-1.64,2.388-3.858,2.388-6.595c0-2.701-0.754-4.856-2.24-6.404C131.223,32.857,129.13,32.072,126.491,32.072z
		 M129.668,45.152c-0.75,0.941-1.881,1.418-3.357,1.418c-1.467,0-2.626-0.485-3.441-1.445c-0.82-0.965-1.236-2.338-1.236-4.084
		c0-1.801,0.416-3.211,1.236-4.192c0.816-0.975,1.963-1.469,3.408-1.469c1.402,0,2.52,0.472,3.319,1.405
		c0.804,0.937,1.212,2.336,1.212,4.157C130.809,42.787,130.425,44.203,129.668,45.152z"/>
	<path fill="#E6EBDF" d="M143.812,39.501c-1.26-0.506-2.065-0.926-2.397-1.247c-0.321-0.311-0.483-0.751-0.483-1.309
		c0-0.494,0.201-0.891,0.614-1.21c0.415-0.323,0.994-0.486,1.721-0.486c0.675,0,1.364,0.106,2.05,0.315
		c0.684,0.209,1.286,0.488,1.789,0.83l0.166,0.112v-3.694l-0.064-0.027c-0.463-0.198-1.074-0.368-1.816-0.507
		c-0.74-0.136-1.411-0.206-1.994-0.206c-1.904,0-3.48,0.488-4.686,1.448c-1.211,0.966-1.824,2.234-1.824,3.769
		c0,0.797,0.131,1.505,0.394,2.105c0.261,0.604,0.669,1.135,1.208,1.58c0.535,0.441,1.363,0.904,2.459,1.376
		c0.921,0.379,1.607,0.7,2.045,0.952c0.427,0.248,0.729,0.497,0.9,0.74c0.166,0.236,0.25,0.561,0.25,0.962
		c0,1.142-0.854,1.696-2.613,1.696c-0.652,0-1.396-0.137-2.211-0.404s-1.578-0.654-2.264-1.148l-0.168-0.121v3.896l0.061,0.028
		c0.572,0.265,1.294,0.487,2.145,0.663c0.852,0.175,1.621,0.265,2.291,0.265c2.066,0,3.732-0.49,4.947-1.457
		c1.223-0.973,1.842-2.27,1.842-3.859c0-1.145-0.333-2.126-0.99-2.918C146.527,40.859,145.395,40.138,143.812,39.501z"/>
	<path fill="#E6EBDF" d="M158.916,32.072c-2.801,0-5.025,0.821-6.611,2.439c-1.586,1.619-2.389,3.859-2.389,6.66
		c0,2.66,0.783,4.799,2.332,6.357c1.547,1.559,3.652,2.35,6.26,2.35c2.713,0,4.895-0.832,6.48-2.474
		c1.586-1.64,2.389-3.858,2.389-6.595c0-2.701-0.754-4.856-2.24-6.404C163.647,32.857,161.555,32.072,158.916,32.072z
		 M162.094,45.152c-0.75,0.941-1.88,1.418-3.357,1.418c-1.467,0-2.626-0.485-3.442-1.445c-0.819-0.965-1.235-2.338-1.235-4.084
		c0-1.801,0.416-3.211,1.236-4.192c0.816-0.975,1.963-1.469,3.409-1.469c1.401,0,2.519,0.472,3.317,1.405
		c0.805,0.937,1.213,2.336,1.213,4.157C163.234,42.787,162.85,44.203,162.094,45.152z"/>
	<path fill="#E6EBDF" d="M188.684,35.741v-3.259h-4.047v-5.067l-0.137,0.042l-3.801,1.164l-0.075,0.023v3.839h-5.995v-2.139
		c0-0.995,0.223-1.757,0.662-2.265c0.437-0.503,1.059-0.758,1.853-0.758c0.571,0,1.163,0.135,1.76,0.401l0.149,0.066v-3.432
		l-0.07-0.025c-0.555-0.2-1.312-0.302-2.248-0.302c-1.181,0-2.253,0.258-3.188,0.766c-0.936,0.511-1.673,1.238-2.188,2.164
		c-0.516,0.924-0.775,1.991-0.775,3.172v2.352h-2.818v3.259h2.818v13.728h4.045V35.741h5.995v8.724c0,3.592,1.694,5.414,5.038,5.414
		c0.549,0,1.127-0.064,1.717-0.191c0.602-0.129,1.01-0.259,1.25-0.396l0.055-0.03v-3.29l-0.164,0.109
		c-0.221,0.146-0.494,0.266-0.814,0.355c-0.322,0.09-0.591,0.135-0.799,0.135c-0.783,0-1.363-0.211-1.723-0.627
		c-0.363-0.42-0.547-1.154-0.547-2.184v-8.019H188.684z"/>
</g>
<rect x="3.413" y="17.847" fill="#E6EBDF" width="18.797" height="18.797"/>
<rect x="24.167" y="17.847" fill="#E6EBDF" width="18.797" height="18.797"/>
<rect x="3.413" y="38.608" fill="#E6EBDF" width="18.796" height="18.797"/>
<rect x="24.167" y="38.608" fill="#E6EBDF" width="18.797" height="18.797"/>
</svg>
