<?xml version="1.0" encoding="utf-8"?>
<!-- Generator: Adobe Illustrator 16.0.0, SVG Export Plug-In . SVG Version: 6.00 Build 0)  -->
<!DOCTYPE svg PUBLIC "-//W3C//DTD SVG 1.1//EN" "http://www.w3.org/Graphics/SVG/1.1/DTD/svg11.dtd">
<svg version="1.1" id="Layer_1" xmlns="http://www.w3.org/2000/svg" xmlns:xlink="http://www.w3.org/1999/xlink" x="0px" y="0px"
	 width="192px" height="74px" viewBox="0 0 192 74" enable-background="new 0 0 192 74" xml:space="preserve">
<g>
	<path fill="#E6EBDF" d="M82.626,22.697H70.653H58.681c-3.482,0-6.348,2.946-6.348,6.535v15.293c0,3.59,2.866,6.535,6.348,6.535
		h11.972h11.973c3.508,0,6.348-2.945,6.348-6.535V29.232C88.974,25.644,86.134,22.697,82.626,22.697z M81.206,42.705
		c0,1.285-1.018,2.355-2.25,2.355h-8.303h-8.276c-1.258,0-2.276-1.07-2.276-2.355V31.053c0-1.285,1.018-2.356,2.276-2.356h8.276
		h8.303c1.232,0,2.25,1.071,2.25,2.356V42.705z"/>
	<polygon fill="#E6EBDF" points="40.201,44.178 23.46,23.18 16.684,23.18 11.703,23.18 8.917,23.18 8.917,51.303 16.684,51.303 
		16.684,29.394 34.147,51.303 40.201,51.303 45.905,51.303 47.967,51.303 47.967,23.18 40.201,23.18 	"/>
	<path fill="#E6EBDF" d="M169.323,23.019h-2.275h-3.697h-3.723h-2.25l-15.053,27.614h9.697l2.598-4.768h8.73h8.732l2.598,4.768
		h9.668L169.323,23.019z M163.351,40h-5.543l5.543-10.178L168.896,40H163.351z"/>
	<polygon fill="#E6EBDF" points="127.515,23.18 116.132,23.18 101.106,36.438 101.106,23.18 92.749,23.18 92.749,51.303 
		101.106,51.303 101.106,37.348 118.462,51.275 129.845,51.275 111.979,36.893 	"/>
	<rect x="131.88" y="23.18" fill="#E6EBDF" width="9.241" height="28.123"/>
</g>
</svg>
